IKResults
version=1
nRows=16
nColumns=40
inDegrees=yes

Units are S.I. units (second, meters, Newtons, ...)
If the header above contains a line with 'inDegrees', this indicates whether rotational values are in degrees (yes) or radians (no).

endheader
time	pelvis_tilt	pelvis_list	pelvis_rotation	pelvis_tx	pelvis_ty	pelvis_tz	hip_flexion_r	hip_adduction_r	hip_rotation_r	knee_angle_r	knee_angle_r_beta	ankle_angle_r	subtalar_angle_r	mtp_angle_r	hip_flexion_l	hip_adduction_l	hip_rotation_l	knee_angle_l	knee_angle_l_beta	ankle_angle_l	subtalar_angle_l	mtp_angle_l	lumbar_extension	lumbar_bending	lumbar_rotation	arm_flex_r	arm_add_r	arm_rot_r	elbow_flex_r	pro_sup_r	wrist_flex_r	wrist_dev_r	arm_flex_l	arm_add_l	arm_rot_l	elbow_flex_l	pro_sup_l	wrist_flex_l	wrist_dev_l
      2.71500000	    -17.01872979	      0.15294160	     -0.81416487	     -0.27805204	      0.83907638	     -0.89844757	     35.84313538	     -9.42927298	     -6.07037593	     33.50717827	      0.58481058	     16.23660588	      0.00000000	      0.00000000	     35.65605850	    -10.21546156	      0.55078894	     30.37237164	      0.53009789	     16.42068863	      0.00000000	      0.00000000	     -1.38184205	     -0.23564700	     -0.41475727	    -19.76502132	    -42.65313380	     31.94618683	     88.70481677	     41.77489126	      0.00000000	      0.00000000	    -25.50953727	    -41.65840520	     24.44289157	     90.70183993	      7.21361576	      0.00000000	      0.00000000
      2.72000000	    -17.17187860	      0.15471881	     -0.76971801	     -0.27873853	      0.83803451	     -0.89860870	     36.26951271	     -9.50438387	     -6.09590239	     33.91735676	      0.59196955	     16.36104160	      0.00000000	      0.00000000	     36.07586703	    -10.21132698	      0.57140653	     30.74316169	      0.53656939	     16.59743028	      0.00000000	      0.00000000	     -1.38834209	     -0.20873875	     -0.47463594	    -19.69867802	    -42.84224447	     32.15666494	     88.79917543	     42.10813438	      0.00000000	      0.00000000	    -25.49339673	    -41.72421086	     24.65667288	     90.69369512	      7.35786348	      0.00000000	      0.00000000
      2.72500000	    -17.29765816	      0.16958384	     -0.76917297	     -0.27940579	      0.83704256	     -0.89869559	     36.65526835	     -9.57660969	     -6.16730115	     34.28157317	      0.59832632	     16.49358759	      0.00000000	      0.00000000	     36.52270985	    -10.24273517	      0.47830895	     31.24589856	      0.54534381	     16.77182914	      0.00000000	      0.00000000	     -1.42097980	     -0.19696703	     -0.52198165	    -19.48324408	    -42.92876814	     32.42033278	     88.67744125	     42.25934172	      0.00000000	      0.00000000	    -25.56283416	    -41.87117396	     24.73920417	     90.81933726	      7.53062726	      0.00000000	      0.00000000
      2.73000000	    -17.51664015	      0.25054539	     -0.80675362	     -0.28022204	      0.83586671	     -0.89873979	     37.19117124	     -9.66755530	     -6.02489393	     34.68341246	      0.60533974	     16.61494378	      0.00000000	      0.00000000	     37.03522433	    -10.23819079	      0.27600529	     31.69433384	      0.55317048	     16.87020600	      0.00000000	      0.00000000	     -1.39647523	     -0.26673245	     -0.48127436	    -19.56362248	    -42.94286219	     32.33150718	     88.66981084	     42.49985044	      0.00000000	      0.00000000	    -25.62672191	    -41.82042165	     24.51731945	     90.85667611	      7.24221518	      0.00000000	      0.00000000
      2.73500000	    -17.58266169	      0.27362903	     -0.81282417	     -0.28091306	      0.83498188	     -0.89881003	     37.52800265	     -9.73847713	     -6.01566546	     35.08157710	      0.61228903	     16.73596083	      0.00000000	      0.00000000	     37.33796307	    -10.25280228	      0.20548303	     32.04478443	      0.55928700	     17.04204252	      0.00000000	      0.00000000	     -1.55226097	     -0.25787817	     -0.53500383	    -19.49504334	    -42.89825623	     32.26808419	     88.66665071	     42.74529227	      0.00000000	      0.00000000	    -25.74234283	    -41.84746214	     24.43685789	     90.98918944	      7.17394842	      0.00000000	      0.00000000
      2.74000000	    -17.70134105	      0.29565757	     -0.79701392	     -0.28156445	      0.83404278	     -0.89902277	     37.90027946	     -9.83197635	     -6.03733374	     35.44267433	      0.61859136	     16.84019826	      0.00000000	      0.00000000	     37.71707940	    -10.24641056	      0.15553932	     32.41864283	      0.56581206	     17.14989054	      0.00000000	      0.00000000	     -1.61889400	     -0.24656513	     -0.58172606	    -19.36279109	    -42.94825156	     32.41776091	     88.57757764	     42.84142488	      0.00000000	      0.00000000	    -25.78844256	    -41.83484600	     24.38051249	     91.01079557	      7.10113937	      0.00000000	      0.00000000
      2.74500000	    -17.84918134	      0.32222187	     -0.78641987	     -0.28234581	      0.83293732	     -0.89910755	     38.34316811	     -9.91063217	     -6.01338148	     35.86023463	      0.62587916	     16.97007778	      0.00000000	      0.00000000	     38.15976550	    -10.27328477	      0.05141930	     32.85951141	      0.57350666	     17.28809196	      0.00000000	      0.00000000	     -1.63150037	     -0.24947230	     -0.61431717	    -19.18920885	    -43.12187423	     32.74607080	     88.58667508	     42.81914166	      0.00000000	      0.00000000	    -25.69109682	    -41.97924301	     24.57318752	     91.00736576	      7.13672768	      0.00000000	      0.00000000
      2.75000000	    -18.05799274	      0.36867784	     -0.75827643	     -0.28309700	      0.83173088	     -0.89921173	     38.83963413	    -10.01043694	     -5.96085367	     36.26549101	      0.63295222	     17.12604495	      0.00000000	      0.00000000	     38.67337818	    -10.26093230	     -0.02273852	     33.29189916	      0.58105325	     17.38081367	      0.00000000	      0.00000000	     -1.61622052	     -0.28144074	     -0.65589161	    -19.23760250	    -43.15815957	     32.67992914	     88.63789800	     43.04503506	      0.00000000	      0.00000000	    -25.79836327	    -42.05052236	     24.48435537	     91.09633512	      7.10185722	      0.00000000	      0.00000000
      2.75500000	    -18.12581751	      0.33404142	     -0.69678119	     -0.28354661	      0.83084999	     -0.89948305	     39.09113116	    -10.09379904	     -6.11606806	     36.58150718	      0.63846775	     17.27726500	      0.00000000	      0.00000000	     39.02000952	    -10.29530236	     -0.09072257	     33.71942716	      0.58851503	     17.61197760	      0.00000000	      0.00000000	     -1.72269447	     -0.19954481	     -0.68976120	    -19.28402080	    -43.22360073	     32.68274091	     88.70004728	     43.31558936	      0.00000000	      0.00000000	    -25.67248876	    -41.99929356	     24.65826394	     90.90212513	      7.23833248	      0.00000000	      0.00000000
      2.76000000	    -18.22067760	      0.42998696	     -0.73316493	     -0.28417678	      0.82992737	     -0.89950946	     39.47942802	    -10.22515074	     -6.05083654	     36.97842645	      0.64539529	     17.37443324	      0.00000000	      0.00000000	     39.28943389	    -10.27334578	     -0.24860701	     34.00516760	      0.59350214	     17.72302201	      0.00000000	      0.00000000	     -1.83214540	     -0.28526495	     -0.61068433	    -19.42106055	    -43.10924972	     32.38146933	     88.70465157	     43.41431505	      0.00000000	      0.00000000	    -25.75179058	    -41.96845682	     24.47289684	     90.97902496	      7.24873124	      0.00000000	      0.00000000
      2.76500000	    -18.39024619	      0.43764802	     -0.76519403	     -0.28498720	      0.82869840	     -0.89947978	     39.96508031	    -10.25891056	     -5.98402631	     37.41031618	      0.65293319	     17.49505717	      0.00000000	      0.00000000	     39.76596299	    -10.34138525	     -0.33133108	     34.47164647	      0.60164373	     17.86753003	      0.00000000	      0.00000000	     -1.84652349	     -0.27380729	     -0.56124877	    -19.36092478	    -43.27862117	     32.63754737	     88.75606899	     43.60310593	      0.00000000	      0.00000000	    -25.74505798	    -42.20769828	     24.73556634	     91.07136342	      7.14235466	      0.00000000	      0.00000000
      2.77000000	    -18.58231917	      0.46856619	     -0.71506510	     -0.28551735	      0.82756002	     -0.89963901	     40.39468415	    -10.38314918	     -6.05360220	     37.76031596	      0.65904184	     17.60908751	      0.00000000	      0.00000000	     40.22534996	    -10.34576416	     -0.46739518	     34.87049606	      0.60860497	     18.02176763	      0.00000000	      0.00000000	     -1.82283929	     -0.29025166	     -0.58765337	    -19.53149052	    -43.11184097	     32.27362231	     88.66649170	     43.97124149	      0.00000000	      0.00000000	    -25.85078437	    -42.19637828	     24.65922805	     91.20897876	      6.98960558	      0.00000000	      0.00000000
      2.77500000	    -18.66642323	      0.45356787	     -0.65487354	     -0.28612468	      0.82652086	     -0.89983431	     40.70081654	    -10.46827453	     -6.11459517	     38.11430716	      0.66522015	     17.77998282	      0.00000000	      0.00000000	     40.61826162	    -10.36188447	     -0.46367721	     35.31743978	      0.61640561	     18.17706505	      0.00000000	      0.00000000	     -1.90766863	     -0.24597412	     -0.63378542	    -19.40443161	    -43.25956374	     32.47895049	     88.67212097	     44.23031851	      0.00000000	      0.00000000	    -25.72063900	    -42.35695902	     24.94675088	     91.19859009	      7.03769794	      0.00000000	      0.00000000
      2.78000000	    -18.77859186	      0.50319838	     -0.68081008	     -0.28694350	      0.82561734	     -0.89986621	     41.09517052	    -10.53349962	     -6.00846879	     38.47158992	      0.67145591	     17.81369282	      0.00000000	      0.00000000	     40.93409476	    -10.37871691	     -0.58950820	     35.58643270	      0.62110042	     18.25077121	      0.00000000	      0.00000000	     -2.02127635	     -0.27071145	     -0.60685486	    -19.34026911	    -43.24974068	     32.52695949	     88.63825164	     44.32517813	      0.00000000	      0.00000000	    -25.67441379	    -42.40478270	     24.94416025	     91.15287598	      7.06448866	      0.00000000	      0.00000000
      2.78500000	    -18.95301168	      0.54972306	     -0.67513268	     -0.28760484	      0.82439541	     -0.89990644	     41.53828115	    -10.63121417	     -5.99708182	     38.84383067	      0.67795274	     18.01378283	      0.00000000	      0.00000000	     41.38507431	    -10.38918395	     -0.68473349	     36.00857201	      0.62846814	     18.40501714	      0.00000000	      0.00000000	     -2.00629590	     -0.31216983	     -0.63599499	    -19.22630372	    -43.34308791	     32.67230765	     88.58253266	     44.42401086	      0.00000000	      0.00000000	    -25.69828027	    -42.56375558	     25.03030179	     91.33174543	      6.97945573	      0.00000000	      0.00000000
      2.79000000	    -19.05909041	      0.55177163	     -0.67271982	     -0.28818672	      0.82335666	     -0.89993745	     41.88100292	    -10.67617868	     -5.97587631	     39.19437809	      0.68407095	     18.15860690	      0.00000000	      0.00000000	     41.72626733	    -10.43674004	     -0.70992640	     36.36024701	      0.63460603	     18.56243063	      0.00000000	      0.00000000	     -2.08515914	     -0.29231882	     -0.63529873	    -19.21137120	    -43.43134786	     32.78473212	     88.67520275	     44.47607676	      0.00000000	      0.00000000	    -25.69473537	    -42.55366994	     25.01091512	     91.27185016	      6.99875999	      0.00000000	      0.00000000
